G04 EAGLE Gerber RS-274X export*
G75*
%MOMM*%
%FSLAX34Y34*%
%LPD*%
%IN*%
%IPPOS*%
%AMOC8*
5,1,8,0,0,1.08239X$1,22.5*%
G01*
%ADD10C,0.254000*%


D10*
X0Y0D02*
X1841000Y-10000D01*
X1841000Y1046200D01*
X0Y1056200D01*
X0Y0D01*
X1750000Y949018D02*
X1749923Y947056D01*
X1749769Y945098D01*
X1749538Y943148D01*
X1749231Y941209D01*
X1748848Y939282D01*
X1748389Y937373D01*
X1747856Y935483D01*
X1747249Y933615D01*
X1746570Y931773D01*
X1745818Y929959D01*
X1744996Y928175D01*
X1744105Y926426D01*
X1743145Y924712D01*
X1742119Y923038D01*
X1741028Y921405D01*
X1739874Y919816D01*
X1738658Y918274D01*
X1737383Y916781D01*
X1736050Y915339D01*
X1734661Y913950D01*
X1733219Y912617D01*
X1731726Y911342D01*
X1730184Y910126D01*
X1728595Y908972D01*
X1726962Y907881D01*
X1725288Y906855D01*
X1723574Y905895D01*
X1721825Y905004D01*
X1720041Y904182D01*
X1718227Y903430D01*
X1716385Y902751D01*
X1714517Y902144D01*
X1712627Y901611D01*
X1710718Y901152D01*
X1708792Y900769D01*
X1706852Y900462D01*
X1704902Y900231D01*
X1702944Y900077D01*
X1700982Y900000D01*
X1699018Y900000D01*
X1697056Y900077D01*
X1695098Y900231D01*
X1693148Y900462D01*
X1691209Y900769D01*
X1689282Y901152D01*
X1687373Y901611D01*
X1685483Y902144D01*
X1683615Y902751D01*
X1681773Y903430D01*
X1679959Y904182D01*
X1678175Y905004D01*
X1676426Y905895D01*
X1674712Y906855D01*
X1673038Y907881D01*
X1671405Y908972D01*
X1669816Y910126D01*
X1668274Y911342D01*
X1666781Y912617D01*
X1665339Y913950D01*
X1663950Y915339D01*
X1662617Y916781D01*
X1661342Y918274D01*
X1660126Y919816D01*
X1658972Y921405D01*
X1657881Y923038D01*
X1656855Y924712D01*
X1655895Y926426D01*
X1655004Y928175D01*
X1654182Y929959D01*
X1653430Y931773D01*
X1652751Y933615D01*
X1652144Y935483D01*
X1651611Y937373D01*
X1651152Y939282D01*
X1650769Y941209D01*
X1650462Y943148D01*
X1650231Y945098D01*
X1650077Y947056D01*
X1650000Y949018D01*
X1650000Y950982D01*
X1650077Y952944D01*
X1650231Y954902D01*
X1650462Y956852D01*
X1650769Y958792D01*
X1651152Y960718D01*
X1651611Y962627D01*
X1652144Y964517D01*
X1652751Y966385D01*
X1653430Y968227D01*
X1654182Y970041D01*
X1655004Y971825D01*
X1655895Y973574D01*
X1656855Y975288D01*
X1657881Y976962D01*
X1658972Y978595D01*
X1660126Y980184D01*
X1661342Y981726D01*
X1662617Y983219D01*
X1663950Y984661D01*
X1665339Y986050D01*
X1666781Y987383D01*
X1668274Y988658D01*
X1669816Y989874D01*
X1671405Y991028D01*
X1673038Y992119D01*
X1674712Y993145D01*
X1676426Y994105D01*
X1678175Y994996D01*
X1679959Y995818D01*
X1681773Y996570D01*
X1683615Y997249D01*
X1685483Y997856D01*
X1687373Y998389D01*
X1689282Y998848D01*
X1691209Y999231D01*
X1693148Y999538D01*
X1695098Y999769D01*
X1697056Y999923D01*
X1699018Y1000000D01*
X1700982Y1000000D01*
X1702944Y999923D01*
X1704902Y999769D01*
X1706852Y999538D01*
X1708792Y999231D01*
X1710718Y998848D01*
X1712627Y998389D01*
X1714517Y997856D01*
X1716385Y997249D01*
X1718227Y996570D01*
X1720041Y995818D01*
X1721825Y994996D01*
X1723574Y994105D01*
X1725288Y993145D01*
X1726962Y992119D01*
X1728595Y991028D01*
X1730184Y989874D01*
X1731726Y988658D01*
X1733219Y987383D01*
X1734661Y986050D01*
X1736050Y984661D01*
X1737383Y983219D01*
X1738658Y981726D01*
X1739874Y980184D01*
X1741028Y978595D01*
X1742119Y976962D01*
X1743145Y975288D01*
X1744105Y973574D01*
X1744996Y971825D01*
X1745818Y970041D01*
X1746570Y968227D01*
X1747249Y966385D01*
X1747856Y964517D01*
X1748389Y962627D01*
X1748848Y960718D01*
X1749231Y958792D01*
X1749538Y956852D01*
X1749769Y954902D01*
X1749923Y952944D01*
X1750000Y950982D01*
X1750000Y949018D01*
X493040Y1001396D02*
X492972Y1000351D01*
X492835Y999312D01*
X492630Y998285D01*
X492359Y997273D01*
X492023Y996281D01*
X491622Y995313D01*
X491158Y994374D01*
X490635Y993466D01*
X490053Y992595D01*
X489415Y991764D01*
X488724Y990977D01*
X487983Y990236D01*
X487196Y989545D01*
X486365Y988908D01*
X485494Y988326D01*
X484586Y987802D01*
X483647Y987338D01*
X482679Y986937D01*
X481687Y986601D01*
X480675Y986330D01*
X479648Y986125D01*
X478609Y985989D01*
X477564Y985920D01*
X476516Y985920D01*
X475471Y985989D01*
X474432Y986125D01*
X473405Y986330D01*
X472393Y986601D01*
X471401Y986937D01*
X470433Y987338D01*
X469494Y987802D01*
X468586Y988326D01*
X467715Y988908D01*
X466884Y989545D01*
X466097Y990236D01*
X465356Y990977D01*
X464665Y991764D01*
X464028Y992595D01*
X463446Y993466D01*
X462922Y994374D01*
X462458Y995313D01*
X462057Y996281D01*
X461721Y997273D01*
X461450Y998285D01*
X461245Y999312D01*
X461109Y1000351D01*
X461040Y1001396D01*
X461040Y1002444D01*
X461109Y1003489D01*
X461245Y1004528D01*
X461450Y1005555D01*
X461721Y1006567D01*
X462057Y1007559D01*
X462458Y1008527D01*
X462922Y1009466D01*
X463446Y1010374D01*
X464028Y1011245D01*
X464665Y1012076D01*
X465356Y1012863D01*
X466097Y1013604D01*
X466884Y1014295D01*
X467715Y1014933D01*
X468586Y1015515D01*
X469494Y1016038D01*
X470433Y1016502D01*
X471401Y1016903D01*
X472393Y1017239D01*
X473405Y1017510D01*
X474432Y1017715D01*
X475471Y1017852D01*
X476516Y1017920D01*
X477564Y1017920D01*
X478609Y1017852D01*
X479648Y1017715D01*
X480675Y1017510D01*
X481687Y1017239D01*
X482679Y1016903D01*
X483647Y1016502D01*
X484586Y1016038D01*
X485494Y1015515D01*
X486365Y1014933D01*
X487196Y1014295D01*
X487983Y1013604D01*
X488724Y1012863D01*
X489415Y1012076D01*
X490053Y1011245D01*
X490635Y1010374D01*
X491158Y1009466D01*
X491622Y1008527D01*
X492023Y1007559D01*
X492359Y1006567D01*
X492630Y1005555D01*
X492835Y1004528D01*
X492972Y1003489D01*
X493040Y1002444D01*
X493040Y1001396D01*
X851815Y815976D02*
X851747Y814931D01*
X851610Y813892D01*
X851405Y812865D01*
X851134Y811853D01*
X850798Y810861D01*
X850397Y809893D01*
X849933Y808954D01*
X849410Y808046D01*
X848828Y807175D01*
X848190Y806344D01*
X847499Y805557D01*
X846758Y804816D01*
X845971Y804125D01*
X845140Y803488D01*
X844269Y802906D01*
X843361Y802382D01*
X842422Y801918D01*
X841454Y801517D01*
X840462Y801181D01*
X839450Y800910D01*
X838423Y800705D01*
X837384Y800569D01*
X836339Y800500D01*
X835291Y800500D01*
X834246Y800569D01*
X833207Y800705D01*
X832180Y800910D01*
X831168Y801181D01*
X830176Y801517D01*
X829208Y801918D01*
X828269Y802382D01*
X827361Y802906D01*
X826490Y803488D01*
X825659Y804125D01*
X824872Y804816D01*
X824131Y805557D01*
X823440Y806344D01*
X822803Y807175D01*
X822221Y808046D01*
X821697Y808954D01*
X821233Y809893D01*
X820832Y810861D01*
X820496Y811853D01*
X820225Y812865D01*
X820020Y813892D01*
X819884Y814931D01*
X819815Y815976D01*
X819815Y817024D01*
X819884Y818069D01*
X820020Y819108D01*
X820225Y820135D01*
X820496Y821147D01*
X820832Y822139D01*
X821233Y823107D01*
X821697Y824046D01*
X822221Y824954D01*
X822803Y825825D01*
X823440Y826656D01*
X824131Y827443D01*
X824872Y828184D01*
X825659Y828875D01*
X826490Y829513D01*
X827361Y830095D01*
X828269Y830618D01*
X829208Y831082D01*
X830176Y831483D01*
X831168Y831819D01*
X832180Y832090D01*
X833207Y832295D01*
X834246Y832432D01*
X835291Y832500D01*
X836339Y832500D01*
X837384Y832432D01*
X838423Y832295D01*
X839450Y832090D01*
X840462Y831819D01*
X841454Y831483D01*
X842422Y831082D01*
X843361Y830618D01*
X844269Y830095D01*
X845140Y829513D01*
X845971Y828875D01*
X846758Y828184D01*
X847499Y827443D01*
X848190Y826656D01*
X848828Y825825D01*
X849410Y824954D01*
X849933Y824046D01*
X850397Y823107D01*
X850798Y822139D01*
X851134Y821147D01*
X851405Y820135D01*
X851610Y819108D01*
X851747Y818069D01*
X851815Y817024D01*
X851815Y815976D01*
X358420Y873290D02*
X357341Y873361D01*
X356269Y873502D01*
X355209Y873713D01*
X354165Y873992D01*
X353141Y874340D01*
X352143Y874754D01*
X351173Y875232D01*
X350237Y875772D01*
X349338Y876373D01*
X348481Y877031D01*
X347668Y877744D01*
X346904Y878508D01*
X346191Y879321D01*
X345533Y880178D01*
X344932Y881077D01*
X344392Y882013D01*
X343914Y882983D01*
X343500Y883981D01*
X343152Y885005D01*
X342873Y886049D01*
X342662Y887109D01*
X342521Y888181D01*
X342450Y889260D01*
X342450Y890340D01*
X342521Y891419D01*
X342662Y892491D01*
X342873Y893551D01*
X343152Y894595D01*
X343500Y895619D01*
X343914Y896617D01*
X344392Y897587D01*
X344932Y898523D01*
X345533Y899422D01*
X346191Y900279D01*
X346904Y901092D01*
X347668Y901857D01*
X348481Y902569D01*
X349338Y903227D01*
X350237Y903828D01*
X351173Y904368D01*
X352143Y904846D01*
X353141Y905260D01*
X354165Y905608D01*
X355209Y905887D01*
X356269Y906098D01*
X357341Y906239D01*
X358420Y906310D01*
X359500Y906310D01*
X360579Y906239D01*
X361651Y906098D01*
X362711Y905887D01*
X363755Y905608D01*
X364779Y905260D01*
X365777Y904846D01*
X366747Y904368D01*
X367683Y903828D01*
X368582Y903227D01*
X369439Y902569D01*
X370252Y901857D01*
X371017Y901092D01*
X371729Y900279D01*
X372387Y899422D01*
X372988Y898523D01*
X373528Y897587D01*
X374006Y896617D01*
X374420Y895619D01*
X374768Y894595D01*
X375047Y893551D01*
X375258Y892491D01*
X375399Y891419D01*
X375470Y890340D01*
X375470Y889260D01*
X375399Y888181D01*
X375258Y887109D01*
X375047Y886049D01*
X374768Y885005D01*
X374420Y883981D01*
X374006Y882983D01*
X373528Y882013D01*
X372988Y881077D01*
X372387Y880178D01*
X371729Y879321D01*
X371017Y878508D01*
X370252Y877744D01*
X369439Y877031D01*
X368582Y876373D01*
X367683Y875772D01*
X366747Y875232D01*
X365777Y874754D01*
X364779Y874340D01*
X363755Y873992D01*
X362711Y873713D01*
X361651Y873502D01*
X360579Y873361D01*
X359500Y873290D01*
X358420Y873290D01*
X1345880Y349710D02*
X1346959Y349639D01*
X1348031Y349498D01*
X1349091Y349287D01*
X1350135Y349008D01*
X1351159Y348660D01*
X1352157Y348246D01*
X1353127Y347768D01*
X1354063Y347228D01*
X1354962Y346627D01*
X1355819Y345969D01*
X1356632Y345257D01*
X1357397Y344492D01*
X1358109Y343679D01*
X1358767Y342822D01*
X1359368Y341923D01*
X1359908Y340987D01*
X1360386Y340017D01*
X1360800Y339019D01*
X1361148Y337995D01*
X1361427Y336951D01*
X1361638Y335891D01*
X1361779Y334819D01*
X1361850Y333740D01*
X1361850Y332660D01*
X1361779Y331581D01*
X1361638Y330509D01*
X1361427Y329449D01*
X1361148Y328405D01*
X1360800Y327381D01*
X1360386Y326383D01*
X1359908Y325413D01*
X1359368Y324477D01*
X1358767Y323578D01*
X1358109Y322721D01*
X1357397Y321908D01*
X1356632Y321144D01*
X1355819Y320431D01*
X1354962Y319773D01*
X1354063Y319172D01*
X1353127Y318632D01*
X1352157Y318154D01*
X1351159Y317740D01*
X1350135Y317392D01*
X1349091Y317113D01*
X1348031Y316902D01*
X1346959Y316761D01*
X1345880Y316690D01*
X1344800Y316690D01*
X1343721Y316761D01*
X1342649Y316902D01*
X1341589Y317113D01*
X1340545Y317392D01*
X1339521Y317740D01*
X1338523Y318154D01*
X1337553Y318632D01*
X1336617Y319172D01*
X1335718Y319773D01*
X1334861Y320431D01*
X1334048Y321144D01*
X1333284Y321908D01*
X1332571Y322721D01*
X1331913Y323578D01*
X1331312Y324477D01*
X1330772Y325413D01*
X1330294Y326383D01*
X1329880Y327381D01*
X1329532Y328405D01*
X1329253Y329449D01*
X1329042Y330509D01*
X1328901Y331581D01*
X1328830Y332660D01*
X1328830Y333740D01*
X1328901Y334819D01*
X1329042Y335891D01*
X1329253Y336951D01*
X1329532Y337995D01*
X1329880Y339019D01*
X1330294Y340017D01*
X1330772Y340987D01*
X1331312Y341923D01*
X1331913Y342822D01*
X1332571Y343679D01*
X1333284Y344492D01*
X1334048Y345257D01*
X1334861Y345969D01*
X1335718Y346627D01*
X1336617Y347228D01*
X1337553Y347768D01*
X1338523Y348246D01*
X1339521Y348660D01*
X1340545Y349008D01*
X1341589Y349287D01*
X1342649Y349498D01*
X1343721Y349639D01*
X1344800Y349710D01*
X1345880Y349710D01*
X1345880Y96110D02*
X1346959Y96039D01*
X1348031Y95898D01*
X1349091Y95687D01*
X1350135Y95408D01*
X1351159Y95060D01*
X1352157Y94646D01*
X1353127Y94168D01*
X1354063Y93628D01*
X1354962Y93027D01*
X1355819Y92369D01*
X1356632Y91657D01*
X1357397Y90892D01*
X1358109Y90079D01*
X1358767Y89222D01*
X1359368Y88323D01*
X1359908Y87387D01*
X1360386Y86417D01*
X1360800Y85419D01*
X1361148Y84395D01*
X1361427Y83351D01*
X1361638Y82291D01*
X1361779Y81219D01*
X1361850Y80140D01*
X1361850Y79060D01*
X1361779Y77981D01*
X1361638Y76909D01*
X1361427Y75849D01*
X1361148Y74805D01*
X1360800Y73781D01*
X1360386Y72783D01*
X1359908Y71813D01*
X1359368Y70877D01*
X1358767Y69978D01*
X1358109Y69121D01*
X1357397Y68308D01*
X1356632Y67544D01*
X1355819Y66831D01*
X1354962Y66173D01*
X1354063Y65572D01*
X1353127Y65032D01*
X1352157Y64554D01*
X1351159Y64140D01*
X1350135Y63792D01*
X1349091Y63513D01*
X1348031Y63302D01*
X1346959Y63161D01*
X1345880Y63090D01*
X1344800Y63090D01*
X1343721Y63161D01*
X1342649Y63302D01*
X1341589Y63513D01*
X1340545Y63792D01*
X1339521Y64140D01*
X1338523Y64554D01*
X1337553Y65032D01*
X1336617Y65572D01*
X1335718Y66173D01*
X1334861Y66831D01*
X1334048Y67544D01*
X1333284Y68308D01*
X1332571Y69121D01*
X1331913Y69978D01*
X1331312Y70877D01*
X1330772Y71813D01*
X1330294Y72783D01*
X1329880Y73781D01*
X1329532Y74805D01*
X1329253Y75849D01*
X1329042Y76909D01*
X1328901Y77981D01*
X1328830Y79060D01*
X1328830Y80140D01*
X1328901Y81219D01*
X1329042Y82291D01*
X1329253Y83351D01*
X1329532Y84395D01*
X1329880Y85419D01*
X1330294Y86417D01*
X1330772Y87387D01*
X1331312Y88323D01*
X1331913Y89222D01*
X1332571Y90079D01*
X1333284Y90892D01*
X1334048Y91657D01*
X1334861Y92369D01*
X1335718Y93027D01*
X1336617Y93628D01*
X1337553Y94168D01*
X1338523Y94646D01*
X1339521Y95060D01*
X1340545Y95408D01*
X1341589Y95687D01*
X1342649Y95898D01*
X1343721Y96039D01*
X1344800Y96110D01*
X1345880Y96110D01*
X1345880Y607110D02*
X1346959Y607039D01*
X1348031Y606898D01*
X1349091Y606687D01*
X1350135Y606408D01*
X1351159Y606060D01*
X1352157Y605646D01*
X1353127Y605168D01*
X1354063Y604628D01*
X1354962Y604027D01*
X1355819Y603369D01*
X1356632Y602657D01*
X1357397Y601892D01*
X1358109Y601079D01*
X1358767Y600222D01*
X1359368Y599323D01*
X1359908Y598387D01*
X1360386Y597417D01*
X1360800Y596419D01*
X1361148Y595395D01*
X1361427Y594351D01*
X1361638Y593291D01*
X1361779Y592219D01*
X1361850Y591140D01*
X1361850Y590060D01*
X1361779Y588981D01*
X1361638Y587909D01*
X1361427Y586849D01*
X1361148Y585805D01*
X1360800Y584781D01*
X1360386Y583783D01*
X1359908Y582813D01*
X1359368Y581877D01*
X1358767Y580978D01*
X1358109Y580121D01*
X1357397Y579308D01*
X1356632Y578544D01*
X1355819Y577831D01*
X1354962Y577173D01*
X1354063Y576572D01*
X1353127Y576032D01*
X1352157Y575554D01*
X1351159Y575140D01*
X1350135Y574792D01*
X1349091Y574513D01*
X1348031Y574302D01*
X1346959Y574161D01*
X1345880Y574090D01*
X1344800Y574090D01*
X1343721Y574161D01*
X1342649Y574302D01*
X1341589Y574513D01*
X1340545Y574792D01*
X1339521Y575140D01*
X1338523Y575554D01*
X1337553Y576032D01*
X1336617Y576572D01*
X1335718Y577173D01*
X1334861Y577831D01*
X1334048Y578544D01*
X1333284Y579308D01*
X1332571Y580121D01*
X1331913Y580978D01*
X1331312Y581877D01*
X1330772Y582813D01*
X1330294Y583783D01*
X1329880Y584781D01*
X1329532Y585805D01*
X1329253Y586849D01*
X1329042Y587909D01*
X1328901Y588981D01*
X1328830Y590060D01*
X1328830Y591140D01*
X1328901Y592219D01*
X1329042Y593291D01*
X1329253Y594351D01*
X1329532Y595395D01*
X1329880Y596419D01*
X1330294Y597417D01*
X1330772Y598387D01*
X1331312Y599323D01*
X1331913Y600222D01*
X1332571Y601079D01*
X1333284Y601892D01*
X1334048Y602657D01*
X1334861Y603369D01*
X1335718Y604027D01*
X1336617Y604628D01*
X1337553Y605168D01*
X1338523Y605646D01*
X1339521Y606060D01*
X1340545Y606408D01*
X1341589Y606687D01*
X1342649Y606898D01*
X1343721Y607039D01*
X1344800Y607110D01*
X1345880Y607110D01*
X1345880Y815710D02*
X1346959Y815639D01*
X1348031Y815498D01*
X1349091Y815287D01*
X1350135Y815008D01*
X1351159Y814660D01*
X1352157Y814246D01*
X1353127Y813768D01*
X1354063Y813228D01*
X1354962Y812627D01*
X1355819Y811969D01*
X1356632Y811257D01*
X1357397Y810492D01*
X1358109Y809679D01*
X1358767Y808822D01*
X1359368Y807923D01*
X1359908Y806987D01*
X1360386Y806017D01*
X1360800Y805019D01*
X1361148Y803995D01*
X1361427Y802951D01*
X1361638Y801891D01*
X1361779Y800819D01*
X1361850Y799740D01*
X1361850Y798660D01*
X1361779Y797581D01*
X1361638Y796509D01*
X1361427Y795449D01*
X1361148Y794405D01*
X1360800Y793381D01*
X1360386Y792383D01*
X1359908Y791413D01*
X1359368Y790477D01*
X1358767Y789578D01*
X1358109Y788721D01*
X1357397Y787908D01*
X1356632Y787144D01*
X1355819Y786431D01*
X1354962Y785773D01*
X1354063Y785172D01*
X1353127Y784632D01*
X1352157Y784154D01*
X1351159Y783740D01*
X1350135Y783392D01*
X1349091Y783113D01*
X1348031Y782902D01*
X1346959Y782761D01*
X1345880Y782690D01*
X1344800Y782690D01*
X1343721Y782761D01*
X1342649Y782902D01*
X1341589Y783113D01*
X1340545Y783392D01*
X1339521Y783740D01*
X1338523Y784154D01*
X1337553Y784632D01*
X1336617Y785172D01*
X1335718Y785773D01*
X1334861Y786431D01*
X1334048Y787144D01*
X1333284Y787908D01*
X1332571Y788721D01*
X1331913Y789578D01*
X1331312Y790477D01*
X1330772Y791413D01*
X1330294Y792383D01*
X1329880Y793381D01*
X1329532Y794405D01*
X1329253Y795449D01*
X1329042Y796509D01*
X1328901Y797581D01*
X1328830Y798660D01*
X1328830Y799740D01*
X1328901Y800819D01*
X1329042Y801891D01*
X1329253Y802951D01*
X1329532Y803995D01*
X1329880Y805019D01*
X1330294Y806017D01*
X1330772Y806987D01*
X1331312Y807923D01*
X1331913Y808822D01*
X1332571Y809679D01*
X1333284Y810492D01*
X1334048Y811257D01*
X1334861Y811969D01*
X1335718Y812627D01*
X1336617Y813228D01*
X1337553Y813768D01*
X1338523Y814246D01*
X1339521Y814660D01*
X1340545Y815008D01*
X1341589Y815287D01*
X1342649Y815498D01*
X1343721Y815639D01*
X1344800Y815710D01*
X1345880Y815710D01*
M02*
