G04 EAGLE Gerber RS-274X export*
G75*
%MOMM*%
%FSLAX34Y34*%
%LPD*%
%INSoldermask Bottom*%
%IPPOS*%
%AMOC8*
5,1,8,0,0,1.08239X$1,22.5*%
G01*
%ADD10C,10.203200*%
%ADD11C,1.727200*%
%ADD12C,2.451100*%
%ADD13C,3.403200*%
%ADD14R,1.981200X1.981200*%
%ADD15C,1.879600*%
%ADD16C,3.505200*%
%ADD17C,2.082800*%
%ADD18P,1.649562X8X112.500000*%
%ADD19C,2.133600*%
%ADD20C,2.184400*%
%ADD21P,3.629037X8X292.500000*%
%ADD22C,3.352800*%
%ADD23P,2.034460X8X112.500000*%
%ADD24P,2.034460X8X292.500000*%


D10*
X1700000Y950000D03*
D11*
X1677520Y556400D02*
X1662280Y556400D01*
X1662280Y581800D02*
X1677520Y581800D01*
X1677520Y607200D02*
X1662280Y607200D01*
D12*
X1591400Y789861D02*
X1591400Y812340D01*
X1591400Y659940D02*
X1591400Y637461D01*
D13*
X477040Y1001920D03*
X835815Y816500D03*
D14*
X428780Y810150D03*
X428780Y1008270D03*
X884075Y1008270D03*
X884075Y810150D03*
D15*
X217482Y915200D02*
X200718Y915200D01*
X200718Y889800D02*
X217482Y889800D01*
X217482Y864400D02*
X200718Y864400D01*
D16*
X358960Y889800D03*
D11*
X467200Y715920D02*
X467200Y700680D01*
X441800Y700680D02*
X441800Y715920D01*
X416400Y715920D02*
X416400Y700680D01*
D15*
X1512218Y307800D02*
X1528982Y307800D01*
X1528982Y333200D02*
X1512218Y333200D01*
X1512218Y358600D02*
X1528982Y358600D01*
D16*
X1345340Y333200D03*
D15*
X1512218Y54200D02*
X1528982Y54200D01*
X1528982Y79600D02*
X1512218Y79600D01*
X1512218Y105000D02*
X1528982Y105000D01*
D16*
X1345340Y79600D03*
D15*
X1512218Y565200D02*
X1528982Y565200D01*
X1528982Y590600D02*
X1512218Y590600D01*
X1512218Y616000D02*
X1528982Y616000D01*
D16*
X1345340Y590600D03*
D15*
X1512218Y773800D02*
X1528982Y773800D01*
X1528982Y799200D02*
X1512218Y799200D01*
X1512218Y824600D02*
X1528982Y824600D01*
D16*
X1345340Y799200D03*
D17*
X439900Y109100D03*
X439900Y185300D03*
X381000Y342500D03*
X381000Y418700D03*
X441000Y570900D03*
X441000Y647100D03*
X441000Y459300D03*
X441000Y535500D03*
X321000Y107700D03*
X321000Y183900D03*
X321000Y226100D03*
X321000Y302300D03*
X321000Y344500D03*
X321000Y420700D03*
X1152900Y556800D03*
X1152900Y633000D03*
X1102900Y555200D03*
X1102900Y631400D03*
X1102900Y750900D03*
X1102900Y827100D03*
X1152900Y749300D03*
X1152900Y825500D03*
X439100Y224100D03*
X439100Y300300D03*
X1247100Y462800D03*
X1247100Y386600D03*
X1195200Y463200D03*
X1195200Y387000D03*
X1065200Y437500D03*
X1065200Y361300D03*
X1090900Y455200D03*
X1167100Y455200D03*
X1040700Y334800D03*
X964500Y334800D03*
X1245200Y212300D03*
X1245200Y136100D03*
X1195200Y213900D03*
X1195200Y137700D03*
X1045200Y185500D03*
X1045200Y109300D03*
X439100Y342500D03*
X439100Y418700D03*
X1084100Y203300D03*
X1160300Y203300D03*
X1037500Y76700D03*
X961300Y76700D03*
X379100Y110900D03*
X379100Y187100D03*
X319100Y569300D03*
X319100Y645500D03*
X319100Y457700D03*
X319100Y533900D03*
X379100Y226100D03*
X379100Y302300D03*
X379100Y564500D03*
X379100Y640700D03*
X381000Y454100D03*
X381000Y530300D03*
D18*
X1241200Y590600D03*
X1222150Y577900D03*
X1241200Y565200D03*
X1241200Y799200D03*
X1222150Y786500D03*
X1241200Y773800D03*
X1241200Y333200D03*
X1222150Y320500D03*
X1241200Y307800D03*
X1126900Y345900D03*
X1107850Y333200D03*
X1126900Y320500D03*
X1241200Y79600D03*
X1222150Y66900D03*
X1241200Y54200D03*
X1126900Y92300D03*
X1107850Y79600D03*
X1126900Y66900D03*
D19*
X786900Y139600D03*
X786900Y165000D03*
X786900Y190400D03*
X786900Y215800D03*
X786900Y241200D03*
X786900Y266600D03*
X786900Y292000D03*
X786900Y317400D03*
X786900Y342800D03*
X786900Y368200D03*
X786900Y393600D03*
X786900Y419000D03*
X786900Y444400D03*
X786900Y469800D03*
X786900Y495200D03*
X539200Y139600D03*
X539200Y165000D03*
X539200Y190400D03*
X539200Y215800D03*
X539200Y241200D03*
X539200Y266600D03*
X539200Y292000D03*
X539200Y317400D03*
X539200Y342800D03*
X539200Y368200D03*
X539200Y393600D03*
X539200Y419000D03*
X539200Y444400D03*
X539200Y469800D03*
X539200Y495200D03*
D20*
X98806Y329438D02*
X78994Y329438D01*
X78994Y279400D02*
X98806Y279400D01*
X98806Y229362D02*
X78994Y229362D01*
X78994Y523946D02*
X98806Y523946D01*
X98806Y473908D02*
X78994Y473908D01*
X78994Y663646D02*
X98806Y663646D01*
X98806Y613608D02*
X78994Y613608D01*
X78994Y803346D02*
X98806Y803346D01*
X98806Y753308D02*
X78994Y753308D01*
X1738494Y333454D02*
X1758306Y333454D01*
X1758306Y383492D02*
X1738494Y383492D01*
X1738494Y79854D02*
X1758306Y79854D01*
X1758306Y129892D02*
X1738494Y129892D01*
X98806Y101346D02*
X78994Y101346D01*
X78994Y51308D02*
X98806Y51308D01*
X98806Y1006746D02*
X78994Y1006746D01*
X78994Y956708D02*
X98806Y956708D01*
X1738494Y754354D02*
X1758306Y754354D01*
X1758306Y804392D02*
X1738494Y804392D01*
D17*
X260000Y111900D03*
X260000Y188100D03*
X260000Y221900D03*
X260000Y298100D03*
X260000Y341900D03*
X260000Y418100D03*
X260000Y571900D03*
X260000Y648100D03*
X260000Y461900D03*
X260000Y538100D03*
D21*
X1020000Y891900D03*
D22*
X1020000Y968100D03*
D17*
X1066800Y787400D03*
X990600Y787400D03*
D23*
X889000Y622300D03*
X889000Y749300D03*
X952500Y622300D03*
X952500Y749300D03*
D24*
X1206500Y749300D03*
X1206500Y622300D03*
M02*
